<?xml version="1.0" encoding="UTF-8" standalone="no"?>
<!DOCTYPE svg PUBLIC "-//W3C//DTD SVG 1.1//EN"
 "http://www.w3.org/Graphics/SVG/1.1/DTD/svg11.dtd">
<!-- Generated by graphviz version 2.38.0 (20140413.2041)
 -->
<!-- Title: %3 Pages: 1 -->
<svg width="648pt" height="404pt"
 viewBox="0.00 0.00 648.03 404.00" xmlns="http://www.w3.org/2000/svg" xmlns:xlink="http://www.w3.org/1999/xlink">
<g id="graph0" class="graph" transform="scale(1 1) rotate(0) translate(4 400)">
<title>%3</title>
<polygon fill="white" stroke="none" points="-4,4 -4,-400 644.033,-400 644.033,4 -4,4"/>
<!-- [root] aws_instance.secondserver -->
<g id="node1" class="node"><title>[root] aws_instance.secondserver</title>
<polygon fill="none" stroke="black" points="584.5,-252 421.5,-252 421.5,-216 584.5,-216 584.5,-252"/>
<text text-anchor="middle" x="503" y="-230.3" font-family="Times,serif" font-size="14.00">aws_instance.secondserver</text>
</g>
<!-- [root] aws_subnet.nna_subnet2 -->
<g id="node4" class="node"><title>[root] aws_subnet.nna_subnet2</title>
<polygon fill="none" stroke="black" points="472,-180 320,-180 320,-144 472,-144 472,-180"/>
<text text-anchor="middle" x="396" y="-158.3" font-family="Times,serif" font-size="14.00">aws_subnet.nna_subnet2</text>
</g>
<!-- [root] aws_instance.secondserver&#45;&gt;[root] aws_subnet.nna_subnet2 -->
<g id="edge1" class="edge"><title>[root] aws_instance.secondserver&#45;&gt;[root] aws_subnet.nna_subnet2</title>
<path fill="none" stroke="black" d="M476.825,-215.876C462.964,-206.808 445.759,-195.552 430.789,-185.759"/>
<polygon fill="black" stroke="black" points="432.56,-182.735 422.276,-180.19 428.728,-188.593 432.56,-182.735"/>
</g>
<!-- [root] data.aws_ami.ubuntu -->
<g id="node6" class="node"><title>[root] data.aws_ami.ubuntu</title>
<polygon fill="none" stroke="black" points="565.5,-108 432.5,-108 432.5,-72 565.5,-72 565.5,-108"/>
<text text-anchor="middle" x="499" y="-86.3" font-family="Times,serif" font-size="14.00">data.aws_ami.ubuntu</text>
</g>
<!-- [root] aws_instance.secondserver&#45;&gt;[root] data.aws_ami.ubuntu -->
<g id="edge2" class="edge"><title>[root] aws_instance.secondserver&#45;&gt;[root] data.aws_ami.ubuntu</title>
<path fill="none" stroke="black" d="M502.518,-215.871C501.836,-191.67 500.583,-147.211 499.772,-118.393"/>
<polygon fill="black" stroke="black" points="503.264,-118.087 499.484,-108.189 496.267,-118.284 503.264,-118.087"/>
</g>
<!-- [root] aws_security_group.nna_subnetsecurity -->
<g id="node2" class="node"><title>[root] aws_security_group.nna_subnetsecurity</title>
<polygon fill="none" stroke="black" points="403.5,-252 170.5,-252 170.5,-216 403.5,-216 403.5,-252"/>
<text text-anchor="middle" x="287" y="-230.3" font-family="Times,serif" font-size="14.00">aws_security_group.nna_subnetsecurity</text>
</g>
<!-- [root] aws_vpc.nna_environment&#45;example&#45;two -->
<g id="node5" class="node"><title>[root] aws_vpc.nna_environment&#45;example&#45;two</title>
<polygon fill="none" stroke="black" points="409.5,-108 170.5,-108 170.5,-72 409.5,-72 409.5,-108"/>
<text text-anchor="middle" x="290" y="-86.3" font-family="Times,serif" font-size="14.00">aws_vpc.nna_environment&#45;example&#45;two</text>
</g>
<!-- [root] aws_security_group.nna_subnetsecurity&#45;&gt;[root] aws_vpc.nna_environment&#45;example&#45;two -->
<g id="edge3" class="edge"><title>[root] aws_security_group.nna_subnetsecurity&#45;&gt;[root] aws_vpc.nna_environment&#45;example&#45;two</title>
<path fill="none" stroke="black" d="M287.362,-215.871C287.873,-191.67 288.812,-147.211 289.421,-118.393"/>
<polygon fill="black" stroke="black" points="292.925,-118.261 289.637,-108.189 285.926,-118.113 292.925,-118.261"/>
</g>
<!-- [root] aws_subnet.nna_subnet1 -->
<g id="node3" class="node"><title>[root] aws_subnet.nna_subnet1</title>
<polygon fill="none" stroke="black" points="152,-252 0,-252 0,-216 152,-216 152,-252"/>
<text text-anchor="middle" x="76" y="-230.3" font-family="Times,serif" font-size="14.00">aws_subnet.nna_subnet1</text>
</g>
<!-- [root] aws_subnet.nna_subnet1&#45;&gt;[root] aws_vpc.nna_environment&#45;example&#45;two -->
<g id="edge4" class="edge"><title>[root] aws_subnet.nna_subnet1&#45;&gt;[root] aws_vpc.nna_environment&#45;example&#45;two</title>
<path fill="none" stroke="black" d="M101.813,-215.871C140.294,-190.338 212.76,-142.253 255.668,-113.781"/>
<polygon fill="black" stroke="black" points="257.698,-116.635 264.095,-108.189 253.827,-110.802 257.698,-116.635"/>
</g>
<!-- [root] aws_subnet.nna_subnet2&#45;&gt;[root] aws_vpc.nna_environment&#45;example&#45;two -->
<g id="edge5" class="edge"><title>[root] aws_subnet.nna_subnet2&#45;&gt;[root] aws_vpc.nna_environment&#45;example&#45;two</title>
<path fill="none" stroke="black" d="M370.069,-143.876C356.338,-134.808 339.294,-123.552 324.464,-113.759"/>
<polygon fill="black" stroke="black" points="326.304,-110.78 316.03,-108.19 322.446,-116.621 326.304,-110.78"/>
</g>
<!-- [root] provider.aws -->
<g id="node7" class="node"><title>[root] provider.aws</title>
<polygon fill="none" stroke="black" points="394,-36 314.067,-18 394,-3.55271e-15 473.933,-18 394,-36"/>
<text text-anchor="middle" x="394" y="-14.3" font-family="Times,serif" font-size="14.00">provider.aws</text>
</g>
<!-- [root] aws_vpc.nna_environment&#45;example&#45;two&#45;&gt;[root] provider.aws -->
<g id="edge6" class="edge"><title>[root] aws_vpc.nna_environment&#45;example&#45;two&#45;&gt;[root] provider.aws</title>
<path fill="none" stroke="black" d="M315.441,-71.8761C330.967,-61.4258 350.811,-48.0692 366.67,-37.3949"/>
<polygon fill="black" stroke="black" points="368.677,-40.2635 375.018,-31.7761 364.768,-34.4564 368.677,-40.2635"/>
</g>
<!-- [root] data.aws_ami.ubuntu&#45;&gt;[root] provider.aws -->
<g id="edge7" class="edge"><title>[root] data.aws_ami.ubuntu&#45;&gt;[root] provider.aws</title>
<path fill="none" stroke="black" d="M473.314,-71.8761C457.639,-61.4258 437.604,-48.0692 421.592,-37.3949"/>
<polygon fill="black" stroke="black" points="423.426,-34.411 413.164,-31.7761 419.543,-40.2353 423.426,-34.411"/>
</g>
<!-- [root] meta.count&#45;boundary (count boundary fixup) -->
<g id="node8" class="node"><title>[root] meta.count&#45;boundary (count boundary fixup)</title>
<ellipse fill="none" stroke="black" cx="447" cy="-306" rx="193.066" ry="18"/>
<text text-anchor="middle" x="447" y="-302.3" font-family="Times,serif" font-size="14.00">[root] meta.count&#45;boundary (count boundary fixup)</text>
</g>
<!-- [root] meta.count&#45;boundary (count boundary fixup)&#45;&gt;[root] aws_instance.secondserver -->
<g id="edge8" class="edge"><title>[root] meta.count&#45;boundary (count boundary fixup)&#45;&gt;[root] aws_instance.secondserver</title>
<path fill="none" stroke="black" d="M460.843,-287.697C467.489,-279.389 475.578,-269.277 482.887,-260.141"/>
<polygon fill="black" stroke="black" points="485.803,-262.099 489.317,-252.104 480.336,-257.727 485.803,-262.099"/>
</g>
<!-- [root] meta.count&#45;boundary (count boundary fixup)&#45;&gt;[root] aws_security_group.nna_subnetsecurity -->
<g id="edge9" class="edge"><title>[root] meta.count&#45;boundary (count boundary fixup)&#45;&gt;[root] aws_security_group.nna_subnetsecurity</title>
<path fill="none" stroke="black" d="M408.676,-288.233C386.737,-278.635 358.997,-266.499 335.545,-256.239"/>
<polygon fill="black" stroke="black" points="336.687,-252.918 326.123,-252.116 333.882,-259.331 336.687,-252.918"/>
</g>
<!-- [root] meta.count&#45;boundary (count boundary fixup)&#45;&gt;[root] aws_subnet.nna_subnet1 -->
<g id="edge10" class="edge"><title>[root] meta.count&#45;boundary (count boundary fixup)&#45;&gt;[root] aws_subnet.nna_subnet1</title>
<path fill="none" stroke="black" d="M363.094,-289.774C308.515,-279.794 235.525,-266.305 162.307,-252.24"/>
<polygon fill="black" stroke="black" points="162.927,-248.795 152.446,-250.342 161.604,-255.669 162.927,-248.795"/>
</g>
<!-- [root] provider.aws (close) -->
<g id="node9" class="node"><title>[root] provider.aws (close)</title>
<ellipse fill="none" stroke="black" cx="131" cy="-306" rx="105.082" ry="18"/>
<text text-anchor="middle" x="131" y="-302.3" font-family="Times,serif" font-size="14.00">[root] provider.aws (close)</text>
</g>
<!-- [root] provider.aws (close)&#45;&gt;[root] aws_instance.secondserver -->
<g id="edge11" class="edge"><title>[root] provider.aws (close)&#45;&gt;[root] aws_instance.secondserver</title>
<path fill="none" stroke="black" d="M199.231,-292.161C258.784,-280.955 345.702,-264.599 411.321,-252.251"/>
<polygon fill="black" stroke="black" points="412.071,-255.672 421.252,-250.383 410.777,-248.792 412.071,-255.672"/>
</g>
<!-- [root] provider.aws (close)&#45;&gt;[root] aws_security_group.nna_subnetsecurity -->
<g id="edge12" class="edge"><title>[root] provider.aws (close)&#45;&gt;[root] aws_security_group.nna_subnetsecurity</title>
<path fill="none" stroke="black" d="M166.79,-288.941C188.373,-279.256 216.128,-266.802 239.529,-256.301"/>
<polygon fill="black" stroke="black" points="241.235,-259.372 248.926,-252.084 238.37,-252.985 241.235,-259.372"/>
</g>
<!-- [root] provider.aws (close)&#45;&gt;[root] aws_subnet.nna_subnet1 -->
<g id="edge13" class="edge"><title>[root] provider.aws (close)&#45;&gt;[root] aws_subnet.nna_subnet1</title>
<path fill="none" stroke="black" d="M117.686,-288.055C111.163,-279.753 103.173,-269.584 95.9397,-260.378"/>
<polygon fill="black" stroke="black" points="98.5038,-257.976 89.5734,-252.275 92.9996,-262.301 98.5038,-257.976"/>
</g>
<!-- [root] root -->
<g id="node10" class="node"><title>[root] root</title>
<ellipse fill="none" stroke="black" cx="289" cy="-378" rx="47.3916" ry="18"/>
<text text-anchor="middle" x="289" y="-374.3" font-family="Times,serif" font-size="14.00">[root] root</text>
</g>
<!-- [root] root&#45;&gt;[root] meta.count&#45;boundary (count boundary fixup) -->
<g id="edge14" class="edge"><title>[root] root&#45;&gt;[root] meta.count&#45;boundary (count boundary fixup)</title>
<path fill="none" stroke="black" d="M318.719,-363.834C341.568,-353.71 373.575,-339.53 399.902,-327.866"/>
<polygon fill="black" stroke="black" points="401.591,-330.946 409.317,-323.695 398.756,-324.546 401.591,-330.946"/>
</g>
<!-- [root] root&#45;&gt;[root] provider.aws (close) -->
<g id="edge15" class="edge"><title>[root] root&#45;&gt;[root] provider.aws (close)</title>
<path fill="none" stroke="black" d="M259.281,-363.834C235.852,-353.453 202.794,-338.807 176.105,-326.983"/>
<polygon fill="black" stroke="black" points="177.517,-323.781 166.956,-322.93 174.681,-330.181 177.517,-323.781"/>
</g>
</g>
</svg>
